<svg version="1.1" id="Layer_1" xmlns="http://www.w3.org/2000/svg" xmlns:xlink="http://www.w3.org/1999/xlink" x="0px" y="0px"
	 width="100%" viewBox="0 0 512 512" enable-background="new 0 0 512 512" xml:space="preserve">
<path fill="#010000" opacity="1.000000" stroke="none" 
	d="
M308.000000,513.000000 
	C205.358261,513.000000 103.216515,513.000000 1.037387,513.000000 
	C1.037387,342.399902 1.037387,171.799789 1.037387,1.099841 
	C171.558426,1.099841 342.116913,1.099841 512.837708,1.099841 
	C512.837708,171.666534 512.837708,342.333252 512.837708,513.000000 
	C444.799774,513.000000 376.649872,513.000000 308.000000,513.000000 
M295.644989,417.084961 
	C296.099304,416.726715 296.553619,416.368469 297.709900,415.904724 
	C313.346313,406.930603 330.000549,404.584534 347.690033,407.701263 
	C360.618103,409.979065 372.281799,415.406158 384.300568,421.625885 
	C393.138580,427.556091 401.976593,433.486298 411.011749,439.548767 
	C411.011749,430.265137 411.071411,421.148224 410.946533,412.033813 
	C410.928101,410.688110 410.403381,408.988586 409.490875,408.072083 
	C401.080048,399.624542 392.532288,391.313354 383.595734,382.379639 
	C361.482330,374.976501 342.481018,362.272064 324.372375,347.938141 
	C308.767487,335.586121 295.851990,319.896973 277.891022,310.468170 
	C277.170563,310.089966 276.534668,309.480499 275.978577,308.870148 
	C269.564758,301.830750 263.174011,294.770325 256.756836,287.693146 
	C256.186432,288.554871 255.287094,289.940033 254.361572,291.307495 
	C247.550934,301.370453 239.233643,309.804779 228.657257,316.016937 
	C224.415146,318.508575 220.311722,321.439758 216.704727,324.775818 
	C195.622665,344.274445 174.386688,363.915924 147.709457,375.273407 
	C133.555069,381.299469 122.917946,390.517670 112.156914,400.717041 
	C105.134216,407.373138 101.635582,414.107056 102.878281,423.720276 
	C103.556107,428.963715 102.999290,434.366760 102.999290,440.486511 
	C118.333420,427.644806 133.988342,417.648773 151.825424,411.469177 
	C185.969971,399.639954 216.404907,408.177979 239.204300,435.955750 
	C242.990997,440.569336 246.291779,445.581757 249.945923,451.085205 
	C252.231476,455.162476 254.517014,459.239746 257.153748,463.943481 
	C266.471252,444.829742 278.320831,428.918182 295.066864,417.087952 
	C295.066864,417.087952 295.056244,417.169312 295.644989,417.084961 
M477.281311,345.202759 
	C471.640137,350.839752 466.013947,356.491852 460.353241,362.109161 
	C455.593353,366.832489 450.644897,367.384613 446.850555,363.675385 
	C442.920776,359.833740 443.399780,355.099060 448.192322,350.195679 
	C455.360565,342.861725 462.518646,335.517822 470.282623,327.984406 
	C472.296631,326.392700 474.310608,324.800964 475.507843,323.854767 
	C471.129822,319.196594 467.700806,315.548157 464.043732,311.657043 
	C462.081726,313.766724 460.083466,315.915375 457.478455,318.345306 
	C450.188141,325.626801 442.915039,332.925629 435.601532,340.183746 
	C430.699432,345.048706 427.830688,345.406067 421.608368,341.350433 
	C418.586182,336.105743 418.834442,332.982269 422.883911,328.836700 
	C428.120880,323.475464 433.555298,318.305420 438.740845,312.895996 
	C444.802887,306.572205 453.046539,300.996307 455.998230,293.406067 
	C459.050049,285.558258 457.324219,275.663330 456.921631,266.698364 
	C455.895386,243.845245 451.380432,221.783279 440.028168,201.596786 
	C433.678925,190.306564 425.821747,180.217316 414.704620,173.164520 
	C409.067383,169.588226 405.153809,169.893906 401.647461,173.630875 
	C396.442383,179.178192 396.314331,181.964127 400.482880,188.165085 
	C403.170959,192.163773 405.800293,196.244186 407.998413,200.523010 
	C420.154724,224.186462 421.286011,248.230942 408.319641,271.766449 
	C392.451202,300.569550 367.404022,317.003510 335.283722,322.961670 
	C331.654053,323.634949 327.967041,323.998901 324.306610,324.506317 
	C324.669434,326.178436 325.595154,326.629303 326.323456,327.295868 
	C341.548645,341.230255 358.562164,352.471680 377.229523,361.245148 
	C386.208069,365.464966 386.195892,365.490845 393.321136,358.357330 
	C394.498199,357.178925 395.666718,355.991852 396.853424,354.823242 
	C401.965790,349.788849 404.845581,349.431702 411.239197,353.752930 
	C414.414764,358.379395 413.477448,362.477997 409.619263,366.179535 
	C406.659180,369.019348 403.675568,371.834686 400.955780,374.420044 
	C410.362549,384.032288 419.167358,393.029388 428.261230,402.672729 
	C434.172211,407.661377 437.422668,407.572937 442.841644,402.243011 
	C445.092407,400.029236 447.310059,397.781738 449.541718,395.548553 
	C463.753967,381.326599 477.987762,367.126099 492.166534,352.870880 
	C497.311615,347.698059 497.290588,343.908203 492.274597,338.774719 
	C490.924561,337.393097 489.480682,336.103180 488.357727,335.035370 
	C484.601746,338.550446 481.227936,341.707855 477.281311,345.202759 
M104.634682,352.580505 
	C109.922127,349.623657 112.898476,349.908203 117.171112,353.982910 
	C120.183617,356.855835 123.220337,359.728027 125.967430,362.846191 
	C127.875496,365.011993 129.580536,364.996094 132.056030,363.908722 
	C152.968292,354.723267 171.944229,342.573456 188.823883,327.177277 
	C189.564713,326.501526 190.042160,325.537048 190.868042,324.394897 
	C163.122131,322.119781 139.739365,311.691406 120.991341,291.798218 
	C102.703278,272.393066 93.953178,249.712997 98.972961,222.799744 
	C101.528053,209.100769 107.953270,197.142517 115.962402,185.913132 
	C116.922249,184.567337 118.102966,182.350998 117.623993,181.169434 
	C113.719902,171.538422 108.820572,167.359833 99.158340,173.794876 
	C97.361305,174.991684 95.598953,176.274323 93.978615,177.697296 
	C82.616859,187.675156 74.541237,199.961472 68.856583,213.878937 
	C58.550041,239.112000 56.509109,265.500061 58.214535,292.352020 
	C58.334187,294.235931 59.723312,296.362885 61.121216,297.790009 
	C71.144096,308.022522 81.344826,318.080444 91.441002,328.241608 
	C96.167328,332.998352 96.460526,336.079712 92.302299,342.285858 
	C86.968704,345.233032 84.105919,344.959991 79.838173,340.731140 
	C70.048637,331.030823 60.335274,321.253632 50.392036,311.308655 
	C46.590656,315.290314 43.068893,318.979095 39.513882,322.702728 
	C39.581131,322.803589 39.725769,323.119965 39.955860,323.351379 
	C48.990181,332.437073 58.061268,341.486420 67.060959,350.606232 
	C71.468727,355.072845 71.722656,360.125824 67.898773,363.760895 
	C64.221565,367.256592 59.404728,366.917664 55.106689,362.666046 
	C46.823967,354.472839 38.622459,346.197571 30.377104,337.966492 
	C29.254839,336.846161 28.074081,335.784454 26.521212,334.318817 
	C25.287468,335.783844 24.496674,336.868805 23.561279,337.810059 
	C17.271265,344.139465 17.250980,347.392303 23.544342,353.716400 
	C27.066404,357.255676 30.604391,360.779114 34.137127,364.307770 
	C46.972698,377.128510 59.785328,389.972351 72.658966,402.754730 
	C76.796211,406.862671 81.107780,407.699524 84.551979,404.349182 
	C94.414299,394.755707 103.950493,384.826965 114.345970,374.289001 
	C111.396790,371.669769 108.434814,369.256500 105.726227,366.586212 
	C100.841171,361.770203 100.534225,358.804596 104.634682,352.580505 
M174.200867,174.699249 
	C160.935654,172.032089 149.468201,175.888916 139.716629,184.813370 
	C128.431458,195.141327 120.096840,207.678009 116.744308,222.607086 
	C114.968048,230.516907 114.328262,239.328400 115.844254,247.220184 
	C122.749199,283.165314 163.969879,311.268982 202.583710,306.888123 
	C202.916656,306.709045 203.249603,306.529938 203.815338,306.447754 
	C203.815338,306.447754 204.007751,306.284790 204.856155,306.377808 
	C206.646408,306.008118 208.467529,305.747742 210.222366,305.252533 
	C241.223007,296.504486 257.004578,261.414978 242.630844,231.893234 
	C230.435974,206.846542 210.903366,189.023651 185.491226,177.731476 
	C182.224960,176.280060 178.488007,175.887878 174.200867,174.699249 
M351.001587,174.122696 
	C343.695892,175.337997 335.815369,175.197723 329.186218,178.008621 
	C303.595947,188.859451 284.601807,207.204224 272.118866,232.078888 
	C267.955811,240.374588 265.896667,249.287079 266.654755,258.639801 
	C269.521484,294.006744 307.061615,316.890503 341.781342,304.128815 
	C355.895386,300.364044 368.124969,293.201141 378.599487,283.142426 
	C392.484772,269.808350 401.480133,253.970337 400.007202,234.130997 
	C398.320709,211.415207 387.245850,193.442139 368.954010,180.311584 
	C364.252228,176.936478 357.633240,176.232269 351.001587,174.122696 
M382.314819,168.759567 
	C383.328888,168.001511 384.412811,167.320190 385.344696,166.471878 
	C388.992706,163.151077 392.234406,159.218231 396.322998,156.599152 
	C399.640228,154.474152 403.953094,153.903427 407.875916,152.626617 
	C407.875916,146.850174 407.875916,141.056335 407.875916,134.831451 
	C401.533905,134.578674 399.108063,130.267838 397.722717,124.904243 
	C397.225922,122.980766 396.526123,121.110687 395.982056,119.198288 
	C392.455261,106.801575 392.211975,94.172821 393.747650,81.059097 
	C387.117432,84.831108 380.952362,88.338493 374.066315,91.949699 
	C362.973663,95.104546 352.045319,99.184685 340.748688,101.190750 
	C325.005585,103.986443 310.256409,99.343384 295.994019,91.266846 
	C278.107178,79.984734 266.767303,63.116871 256.986237,44.276123 
	C254.029297,49.729855 251.521637,54.354919 248.479736,59.395401 
	C246.501480,62.275589 244.621902,65.229630 242.529877,68.024681 
	C218.691086,99.874527 186.556870,109.644806 149.386597,95.721489 
	C139.345856,91.960403 129.940628,86.502663 120.275925,81.839264 
	C122.217812,96.497917 121.013535,111.232597 116.087296,125.674797 
	C114.349289,130.770096 111.954910,134.692764 106.179794,135.219421 
	C106.179794,141.313751 106.179794,147.108963 106.179794,153.256271 
	C117.767204,153.681198 125.764694,159.788635 131.314011,169.369781 
	C154.183594,154.420578 173.792847,152.774246 197.207870,164.218552 
	C221.988358,176.330246 241.115067,194.629929 254.943253,218.481155 
	C255.729355,219.837067 256.507538,221.197586 257.452179,222.838715 
	C268.868011,201.094299 284.825226,184.156418 304.968353,171.234024 
	C316.229706,164.009537 328.166473,158.132812 341.856018,157.041428 
	C356.567871,155.868546 369.774994,160.155853 382.314819,168.759567 
z"/>
<path fill="#FEDB00" opacity="1.000000" stroke="none" 
	d="
M296.385071,91.840004 
	C310.256409,99.343384 325.005585,103.986443 340.748688,101.190750 
	C352.045319,99.184685 362.973663,95.104546 374.700348,92.225906 
	C376.616028,101.291206 377.792358,110.097519 379.226227,118.861710 
	C379.888580,122.910278 381.750824,126.857460 381.861267,130.883728 
	C382.201904,143.301315 381.960754,155.734848 381.945587,168.162186 
	C369.774994,160.155853 356.567871,155.868546 341.856018,157.041428 
	C328.166473,158.132812 316.229706,164.009537 304.968353,171.234024 
	C284.825226,184.156418 268.868011,201.094299 257.452179,222.838715 
	C256.507538,221.197586 255.729355,219.837067 254.943253,218.481155 
	C241.115067,194.629929 221.988358,176.330246 197.207870,164.218552 
	C173.792847,152.774246 154.183594,154.420578 131.314011,169.369781 
	C125.764694,159.788635 117.767204,153.681198 106.179794,153.256271 
	C106.179794,147.108963 106.179794,141.313751 106.179794,135.219421 
	C111.954910,134.692764 114.349289,130.770096 116.087296,125.674797 
	C121.013535,111.232597 122.217812,96.497917 120.275925,81.839264 
	C129.940628,86.502663 139.345856,91.960403 149.386597,95.721489 
	C186.556870,109.644806 218.691086,99.874527 242.529877,68.024681 
	C244.621902,65.229630 246.501480,62.275589 249.035553,59.359440 
	C254.195450,64.513695 258.487732,70.027847 263.471100,74.823975 
	C272.695648,83.702011 283.328583,90.205879 296.385071,91.840004 
z"/>
<path fill="#FEDB00" opacity="1.000000" stroke="none" 
	d="
M383.906677,421.069550 
	C372.281799,415.406158 360.618103,409.979065 347.690033,407.701263 
	C330.000549,404.584534 313.346313,406.930603 297.060669,415.987976 
	C295.959717,416.437225 295.507996,416.803284 295.056244,417.169312 
	C295.056244,417.169312 295.066864,417.087952 294.686279,417.063232 
	C290.510193,418.087769 286.511322,418.680817 282.954895,420.266235 
	C268.639557,426.648010 257.501953,436.667114 249.817123,450.409851 
	C246.291779,445.581757 242.990997,440.569336 239.204300,435.955750 
	C216.404907,408.177979 185.969971,399.639954 151.825424,411.469177 
	C133.988342,417.648773 118.333420,427.644806 102.999290,440.486511 
	C102.999290,434.366760 103.556107,428.963715 102.878281,423.720276 
	C101.635582,414.107056 105.134216,407.373138 112.156914,400.717041 
	C122.917946,390.517670 133.555069,381.299469 147.709457,375.273407 
	C174.386688,363.915924 195.622665,344.274445 216.704727,324.775818 
	C220.311722,321.439758 224.415146,318.508575 228.657257,316.016937 
	C239.233643,309.804779 247.550934,301.370453 254.361572,291.307495 
	C255.287094,289.940033 256.186432,288.554871 256.756836,287.693146 
	C263.174011,294.770325 269.564758,301.830750 275.978577,308.870148 
	C276.534668,309.480499 277.170563,310.089966 277.891022,310.468170 
	C295.851990,319.896973 308.767487,335.586121 324.372375,347.938141 
	C342.481018,362.272064 361.482330,374.976501 383.803772,383.141541 
	C384.320343,390.785614 384.854279,397.667328 384.866089,404.549988 
	C384.875549,410.055939 384.250244,415.562988 383.906677,421.069550 
z"/>
<path fill="#02A8F3" opacity="1.000000" stroke="none" 
	d="
M340.992218,304.004486 
	C307.061615,316.890503 269.521484,294.006744 266.654755,258.639801 
	C265.896667,249.287079 267.955811,240.374588 272.118866,232.078888 
	C284.601807,207.204224 303.595947,188.859451 329.186218,178.008621 
	C335.815369,175.197723 343.695892,175.337997 351.507507,174.538147 
	C358.788971,183.287613 366.548248,191.011383 372.164093,200.064758 
	C392.866760,233.439774 382.771820,268.960510 355.565491,292.265747 
	C350.830383,296.321869 345.856049,300.098663 340.992218,304.004486 
z"/>
<path fill="#F34335" opacity="1.000000" stroke="none" 
	d="
M202.005508,306.825592 
	C163.969879,311.268982 122.749199,283.165314 115.844254,247.220184 
	C114.328262,239.328400 114.968048,230.516907 116.744308,222.607086 
	C120.096840,207.678009 128.431458,195.141327 139.716629,184.813370 
	C149.468201,175.888916 160.935654,172.032089 174.805511,175.106537 
	C195.190842,187.920578 211.890839,203.396072 222.816513,224.323120 
	C234.354034,246.422073 235.211853,268.350372 219.780350,289.130280 
	C215.174561,295.332458 209.300644,300.592865 204.007751,306.284790 
	C204.007751,306.284790 203.815338,306.447754 203.410004,306.372498 
	C202.671600,306.473358 202.338547,306.649475 202.005508,306.825592 
M171.878937,191.355194 
	C166.279327,190.385590 160.909073,190.957428 155.990067,193.970367 
	C147.755676,199.013977 142.328842,206.556580 138.069794,214.951813 
	C136.139343,218.757019 137.912338,223.210434 141.474396,225.334290 
	C145.089005,227.489487 149.522110,226.863449 152.287735,223.508850 
	C153.970551,221.467682 155.241653,219.089920 156.731247,216.886032 
	C160.990646,210.584000 165.559052,205.729935 174.368240,209.622681 
	C178.396515,211.402740 182.720154,208.427261 184.240509,204.229202 
	C185.668228,200.287018 184.183838,196.047424 180.248795,194.072861 
	C177.907059,192.897812 175.233780,192.383514 171.878937,191.355194 
z"/>
<path fill="#0376BB" opacity="1.000000" stroke="none" 
	d="
M410.958984,353.061218 
	C404.845581,349.431702 401.965790,349.788849 396.853424,354.823242 
	C395.666718,355.991852 394.498199,357.178925 393.321136,358.357330 
	C386.195892,365.490845 386.208069,365.464966 377.229523,361.245148 
	C358.562164,352.471680 341.548645,341.230255 326.323456,327.295868 
	C325.595154,326.629303 324.669434,326.178436 324.306610,324.506317 
	C327.967041,323.998901 331.654053,323.634949 335.283722,322.961670 
	C367.404022,317.003510 392.451202,300.569550 408.319641,271.766449 
	C421.286011,248.230942 420.154724,224.186462 407.998413,200.523010 
	C405.800293,196.244186 403.170959,192.163773 400.482880,188.165085 
	C396.314331,181.964127 396.442383,179.178192 401.647461,173.630875 
	C405.153809,169.893906 409.067383,169.588226 414.704620,173.164520 
	C425.821747,180.217316 433.678925,190.306564 440.028168,201.596786 
	C451.380432,221.783279 455.895386,243.845245 456.921631,266.698364 
	C457.324219,275.663330 459.050049,285.558258 455.998230,293.406067 
	C453.046539,300.996307 444.802887,306.572205 438.740845,312.895996 
	C433.555298,318.305420 428.120880,323.475464 422.883911,328.836700 
	C418.834442,332.982269 418.586182,336.105743 421.509125,341.873260 
	C417.926239,345.951141 414.442596,349.506195 410.958984,353.061218 
z"/>
<path fill="#C71E1E" opacity="1.000000" stroke="none" 
	d="
M93.001495,342.001099 
	C96.460526,336.079712 96.167328,332.998352 91.441002,328.241608 
	C81.344826,318.080444 71.144096,308.022522 61.121216,297.790009 
	C59.723312,296.362885 58.334187,294.235931 58.214535,292.352020 
	C56.509109,265.500061 58.550041,239.112000 68.856583,213.878937 
	C74.541237,199.961472 82.616859,187.675156 93.978615,177.697296 
	C95.598953,176.274323 97.361305,174.991684 99.158340,173.794876 
	C108.820572,167.359833 113.719902,171.538422 117.623993,181.169434 
	C118.102966,182.350998 116.922249,184.567337 115.962402,185.913132 
	C107.953270,197.142517 101.528053,209.100769 98.972961,222.799744 
	C93.953178,249.712997 102.703278,272.393066 120.991341,291.798218 
	C139.739365,311.691406 163.122131,322.119781 190.868042,324.394897 
	C190.042160,325.537048 189.564713,326.501526 188.823883,327.177277 
	C171.944229,342.573456 152.968292,354.723267 132.056030,363.908722 
	C129.580536,364.996094 127.875496,365.011993 125.967430,362.846191 
	C123.220337,359.728027 120.183617,356.855835 117.171112,353.982910 
	C112.898476,349.908203 109.922127,349.623657 104.112885,352.478943 
	C100.061218,348.918610 96.531357,345.459869 93.001495,342.001099 
z"/>
<path fill="#EF4234" opacity="1.000000" stroke="none" 
	d="
M92.651901,342.143494 
	C96.531357,345.459869 100.061218,348.918610 103.772369,352.647675 
	C100.534225,358.804596 100.841171,361.770203 105.726227,366.586212 
	C108.434814,369.256500 111.396790,371.669769 114.345970,374.289001 
	C103.950493,384.826965 94.414299,394.755707 84.551979,404.349182 
	C81.107780,407.699524 76.796211,406.862671 72.658966,402.754730 
	C59.785328,389.972351 46.972698,377.128510 34.137127,364.307770 
	C30.604391,360.779114 27.066404,357.255676 23.544342,353.716400 
	C17.250980,347.392303 17.271265,344.139465 23.561279,337.810059 
	C24.496674,336.868805 25.287468,335.783844 26.521212,334.318817 
	C28.074081,335.784454 29.254839,336.846161 30.377104,337.966492 
	C38.622459,346.197571 46.823967,354.472839 55.106689,362.666046 
	C59.404728,366.917664 64.221565,367.256592 67.898773,363.760895 
	C71.722656,360.125824 71.468727,355.072845 67.060959,350.606232 
	C58.061268,341.486420 48.990181,332.437073 39.955860,323.351379 
	C39.725769,323.119965 39.581131,322.803589 39.513882,322.702728 
	C43.068893,318.979095 46.590656,315.290314 50.392036,311.308655 
	C60.335274,321.253632 70.048637,331.030823 79.838173,340.731140 
	C84.105919,344.959991 86.968704,345.233032 92.651901,342.143494 
z"/>
<path fill="#02A7F1" opacity="1.000000" stroke="none" 
	d="
M411.099060,353.407074 
	C414.442596,349.506195 417.926239,345.951141 421.682159,342.212952 
	C427.830688,345.406067 430.699432,345.048706 435.601532,340.183746 
	C442.915039,332.925629 450.188141,325.626801 458.052185,318.384735 
	C462.310944,321.675476 465.995972,324.926788 469.681030,328.178101 
	C462.518646,335.517822 455.360565,342.861725 448.192322,350.195679 
	C443.399780,355.099060 442.920776,359.833740 446.850555,363.675385 
	C450.644897,367.384613 455.593353,366.832489 460.353241,362.109161 
	C466.013947,356.491852 471.640137,350.839752 477.833740,345.293640 
	C479.324249,350.892548 476.565063,354.932251 472.981354,358.534698 
	C459.497101,372.089600 445.977356,385.609497 432.404907,399.075958 
	C431.168579,400.302643 429.460938,401.054260 427.972137,402.026489 
	C419.167358,393.029388 410.362549,384.032288 400.955780,374.420044 
	C403.675568,371.834686 406.659180,369.019348 409.619263,366.179535 
	C413.477448,362.477997 414.414764,358.379395 411.099060,353.407074 
z"/>
<path fill="#0376BB" opacity="1.000000" stroke="none" 
	d="
M341.386780,304.066650 
	C345.856049,300.098663 350.830383,296.321869 355.565491,292.265747 
	C382.771820,268.960510 392.866760,233.439774 372.164093,200.064758 
	C366.548248,191.011383 358.788971,183.287613 351.954224,174.627319 
	C357.633240,176.232269 364.252228,176.936478 368.954010,180.311584 
	C387.245850,193.442139 398.320709,211.415207 400.007202,234.130997 
	C401.480133,253.970337 392.484772,269.808350 378.599487,283.142426 
	C368.124969,293.201141 355.895386,300.364044 341.386780,304.066650 
z"/>
<path fill="#C61E1E" opacity="1.000000" stroke="none" 
	d="
M204.431946,306.331299 
	C209.300644,300.592865 215.174561,295.332458 219.780350,289.130280 
	C235.211853,268.350372 234.354034,246.422073 222.816513,224.323120 
	C211.890839,203.396072 195.190842,187.920578 175.189636,175.259430 
	C178.488007,175.887878 182.224960,176.280060 185.491226,177.731476 
	C210.903366,189.023651 230.435974,206.846542 242.630844,231.893234 
	C257.004578,261.414978 241.223007,296.504486 210.222366,305.252533 
	C208.467529,305.747742 206.646408,306.008118 204.431946,306.331299 
z"/>
<path fill="#FCBF08" opacity="1.000000" stroke="none" 
	d="
M382.130188,168.460876 
	C381.960754,155.734848 382.201904,143.301315 381.861267,130.883728 
	C381.750824,126.857460 379.888580,122.910278 379.226227,118.861710 
	C377.792358,110.097519 376.616028,101.291206 375.060852,92.173996 
	C380.952362,88.338493 387.117432,84.831108 393.747650,81.059097 
	C392.211975,94.172821 392.455261,106.801575 395.982056,119.198288 
	C396.526123,121.110687 397.225922,122.980766 397.722717,124.904243 
	C399.108063,130.267838 401.533905,134.578674 407.875916,134.831451 
	C407.875916,141.056335 407.875916,146.850174 407.875916,152.626617 
	C403.953094,153.903427 399.640228,154.474152 396.322998,156.599152 
	C392.234406,159.218231 388.992706,163.151077 385.344696,166.471878 
	C384.412811,167.320190 383.328888,168.001511 382.130188,168.460876 
z"/>
<path fill="#0374B7" opacity="1.000000" stroke="none" 
	d="
M428.116699,402.349609 
	C429.460938,401.054260 431.168579,400.302643 432.404907,399.075958 
	C445.977356,385.609497 459.497101,372.089600 472.981354,358.534698 
	C476.565063,354.932251 479.324249,350.892548 478.120178,345.124878 
	C481.227936,341.707855 484.601746,338.550446 488.357727,335.035370 
	C489.480682,336.103180 490.924561,337.393097 492.274597,338.774719 
	C497.290588,343.908203 497.311615,347.698059 492.166534,352.870880 
	C477.987762,367.126099 463.753967,381.326599 449.541718,395.548553 
	C447.310059,397.781738 445.092407,400.029236 442.841644,402.243011 
	C437.422668,407.572937 434.172211,407.661377 428.116699,402.349609 
z"/>
<path fill="#FCC008" opacity="1.000000" stroke="none" 
	d="
M384.103638,421.347717 
	C384.250244,415.562988 384.875549,410.055939 384.866089,404.549988 
	C384.854279,397.667328 384.320343,390.785614 384.018097,383.432983 
	C392.532288,391.313354 401.080048,399.624542 409.490875,408.072083 
	C410.403381,408.988586 410.928101,410.688110 410.946533,412.033813 
	C411.071411,421.148224 411.011749,430.265137 411.011749,439.548767 
	C401.976593,433.486298 393.138580,427.556091 384.103638,421.347717 
z"/>
<path fill="#F9BE08" opacity="1.000000" stroke="none" 
	d="
M249.881531,450.747528 
	C257.501953,436.667114 268.639557,426.648010 282.954895,420.266235 
	C286.511322,418.680817 290.510193,418.087769 294.726196,417.072571 
	C278.320831,428.918182 266.471252,444.829742 257.153748,463.943481 
	C254.517014,459.239746 252.231476,455.162476 249.881531,450.747528 
z"/>
<path fill="#FABE08" opacity="1.000000" stroke="none" 
	d="
M296.189545,91.553421 
	C283.328583,90.205879 272.695648,83.702011 263.471100,74.823975 
	C258.487732,70.027847 254.195450,64.513695 249.302673,59.151730 
	C251.521637,54.354919 254.029297,49.729855 256.986237,44.276123 
	C266.767303,63.116871 278.107178,79.984734 296.189545,91.553421 
z"/>
<path fill="#0373B5" opacity="1.000000" stroke="none" 
	d="
M469.981812,328.081238 
	C465.995972,324.926788 462.310944,321.675476 458.355530,318.244080 
	C460.083466,315.915375 462.081726,313.766724 464.043732,311.657043 
	C467.700806,315.548157 471.129822,319.196594 475.507843,323.854767 
	C474.310608,324.800964 472.296631,326.392700 469.981812,328.081238 
z"/>
<path fill="#F9BE08" opacity="1.000000" stroke="none" 
	d="
M295.350616,417.127136 
	C295.507996,416.803284 295.959717,416.437225 296.709686,416.040710 
	C296.553619,416.368469 296.099304,416.726715 295.350616,417.127136 
z"/>
<path fill="#C61E1E" opacity="1.000000" stroke="none" 
	d="
M202.294617,306.856873 
	C202.338547,306.649475 202.671600,306.473358 203.293610,306.324036 
	C203.249603,306.529938 202.916656,306.709045 202.294617,306.856873 
z"/>
<path fill="#F5F2F2" opacity="1.000000" stroke="none" 
	d="
M172.294250,191.463684 
	C175.233780,192.383514 177.907059,192.897812 180.248795,194.072861 
	C184.183838,196.047424 185.668228,200.287018 184.240509,204.229202 
	C182.720154,208.427261 178.396515,211.402740 174.368240,209.622681 
	C165.559052,205.729935 160.990646,210.584000 156.731247,216.886032 
	C155.241653,219.089920 153.970551,221.467682 152.287735,223.508850 
	C149.522110,226.863449 145.089005,227.489487 141.474396,225.334290 
	C137.912338,223.210434 136.139343,218.757019 138.069794,214.951813 
	C142.328842,206.556580 147.755676,199.013977 155.990067,193.970367 
	C160.909073,190.957428 166.279327,190.385590 172.294250,191.463684 
z"/>
</svg>